<?xml version="1.0" encoding="utf-8"?>
<!-- Generator: Adobe Illustrator 15.0.2, SVG Export Plug-In . SVG Version: 6.00 Build 0)  -->
<!DOCTYPE svg PUBLIC "-//W3C//DTD SVG 1.1//EN" "http://www.w3.org/Graphics/SVG/1.1/DTD/svg11.dtd">
<svg version="1.1" id="Ebene_1" xmlns="http://www.w3.org/2000/svg" xmlns:xlink="http://www.w3.org/1999/xlink" x="0px" y="0px"
	 width="385px" height="105px" viewBox="0 0 385 105" enable-background="new 0 0 385 105" xml:space="preserve">
<g>
	<path fill="#FFFFFF" d="M307.866,30.559c-1.738,0.354-4.974,0.913-7.239,1.736c-3.888,1.413-7.419,3.533-10.625,5.623
		c-1.768,1.147-2.975,3.796-4.062,5.623c-2.061,3.383-3.709,9.624-0.941,13.862c0.44,0.648,1.352,1.267,1.796,1.912
		c0.883,1.355,2.501,3.033,3.855,3.856c0.972,0.589,2.001,1.002,3.003,1.618c0.852,0.53,1.618,1.708,2.59,2.033
		c0.91,0.262,1.528,0.382,2.411,0.763c0.411,0.147,0.769,0.648,1.205,0.766c1.119,0.354,2.532,0.706,4.035,1.09
		c2.234,0.558,4.269,1.295,7.21,0.059c0.677-0.296,2.149-1.09,2.531-1.708c0.618-1.059,0.675-2,1.119-3.354
		c0.353-1.178,1.087-2.297,1.265-3.414c0.149-1.031-0.207-2.09-1.089-3.18c-0.295-0.353-0.677-0.853-1.47-0.646
		c-1.061,0.232-2.208,1.44-3.032,2c-0.589,0.412-1.767,1.148-2.415,1.324c-4.647,1.236-16.362-5.062-17.011-7.74
		c-1.412-5.71,5.504-12.096,8.625-14.157c0.381-0.235,1-0.912,1.411-1.03c0.47-0.177,1.384-0.146,1.647-0.235
		c0.649-0.177,1.384-0.56,1.855-0.707c1.235-0.382,2.767,0.796,2.854,2.237c0.148,2.207-1.029,5.151-0.294,6.033
		c0.501,0.619,2.149,0.795,3.003,1.03c2.619,0.766,2.886,1.413,4.678-2.619c0.648-1.501,0.854-4.769,0.237-7.064
		c-0.735-2.737-1.824-5.121-3.709-5.534c-0.942-0.235-0.852-0.383-2.06-0.354C308.013,30.413,308.427,30.442,307.866,30.559z"/>
	<path fill="#FFFFFF" d="M254.566,31.149c-2.769,0.676-5.446,0.882-8.274,2.088c-1.853,0.795-4.031,1.002-5.942,1.472
		c-2.799,0.707-5.444,0.354-7.535,1.62c-0.912,0.558-1.737,5.149-2.65,6.209c-2.883,3.474-2.854,5.181-3.267,5.916
		c-0.206,0.382-1.177-0.206-3.975,8.095c-1.883,5.621-0.881,13.773,9.009,15.833c3.09,0.678,8.36,0.795,10.831-0.823
		c2.06-1.354,3.914-3.09,2.706-6.712c-0.235-0.733-0.205-1.618-0.794-1.94c-1.62-0.855-4.032,0.765-5.149,1.322
		c-2.413,1.178-5.032,1.737-8.771-0.057c-2.561-1.209-3.916-3.062-1.119-4.829c0.323-0.205,0.913-0.795,1.324-0.912
		c1.444-0.472,3.444-0.029,5.122-0.44c1.295-0.324,1.618-0.737,3.619-0.562c1.413,0.149,2.914-0.587,4.888-0.733
		c2.472-0.146,2.621-0.384,3.062-0.618c1.38-0.738,1.146,0.442,3.206-0.589c0.912-0.47,0.737-3.238,0.266-4.091
		c-0.44-0.825-0.473-2.914-1.413-3.208c-0.969-0.294-1.235,0.472-1.647,0.707c-1.354,0.824-3.445,1.324-6.006,1.706
		c-2.734,0.442-4.797,1.001-7.947,0.325c2.533,0.617-2.529-0.119-1.498-1.884c0.705-1.294,1.911-2.943,2.912-4.033
		c2.092-2.354,22.072-4.885,23.046-5.856c0.736-0.53,0.208-2.62,0.058-3.296c-0.146-0.529-0.412-2.061-0.501-2.384
		c-0.086-0.382-1.087-0.914-1.087-1.147C257.006,31.236,257.006,30.53,254.566,31.149z"/>
	<path fill="#FFFFFF" d="M153.7,31.179c-3.062,0.412-3.561,1-4.738,1.323c-2.473,0.59-4.179,0.355-6.711,0.972
		c-1.236,0.324-2.531,1.089-3.649,1.442c-0.766,0.264-1.473,0.147-2.061,0.529c-1.177,0.795-0.5,4.65-0.883,6.211
		c-0.294,1.382-1.972,2.942-2.473,4.355c-2.208,6.386-5.063,17.482,0.735,22.368c0.854,0.708,2.002,0.941,3.12,1.413
		c4.002,1.591,4.915,0.794,8.478,1.148c0.411,0.029,0.648,0.207,1.353,0.059c0.913-0.235,2.06-1.148,3.032-1.589
		c2.059-0.971,2.354-4.593,1.502-6.447c-0.207-0.44-0.56-0.941-0.883-1.411c-0.324-0.53-0.531-1.09-0.882-1.148
		c-1.855,0.029-1.473,1.413-2.708,1.735c-2.973,0.797-7.535,0.589-9.537-0.322c-0.97-0.44-2.237-1.147-1.824-2.738
		c1-3.796,9.271-3.443,13.479-4.473c1.03-0.266,2.502-0.885,3.798-1.295c1.854-0.59,3.441-0.795,3.619-1.089
		c0.53-0.647-1.237-6.534-2.62-6.917c-0.206-0.059-1.089,0.059-1.294,0.118c-0.884,0.235-15.188,5.767-12.098,0.176
		c0.413-0.794,0.915-2.295,1.501-2.973c2.091-2.442,4.15-2.766,6.563-3.12c1.62-0.265,3.415-0.823,5.386-0.971
		c1.677-0.119,3.708-0.676,5.386-0.736c0.943-0.058,1.767,0.06,1.915-0.028c0.353-0.265,0.029-0.649,0.323-1.325
		c0.767-1.825-1-2.326-1.883-3.65c-0.236-0.353-0.295-0.735-0.5-1.236C158.733,30.648,155.171,30.972,153.7,31.179z"/>
	<path fill="#FFFFFF" d="M357.283,27.086c0.794-0.206-1.002,0.207-3.179,0.824c-0.53,0.147-3.032,0.854-4.062,0.706
		c-0.411-0.058-0.854,0.648-1.677,0.471c-0.354-0.059-2.739,0.471-5.271,0.765c-3.707,0.412-5.648,0.795-8.713,1.648
		c-0.762,0.207-2.115,0-2.882,0.207c-2.767,0.677-4.681,0.471-6.683,1.794c-2.588,1.678-2.266,4.475-2.382,7.389
		c-0.03,0.912-1.885,3.914-2.414,5.592c-1.032,3.296-3.503,11.653-2.031,16.011c0.116,0.293,0.589,0.735,0.765,0.971
		c1.324,2.001,2.237,2.679,4.474,3.769c1.589,0.735,5.889,2.207,8.919,1.735c0.146-0.029,1-0.47,1.177-0.499
		c0.883-0.236,1.618,0.117,2.531-0.207c1.266-0.472,4.237-0.618,5.62-1.501c1.943-1.267,2.091-6.564-0.47-7.27
		c-0.853-0.205-1.531,0.294-3.473,0.618c-4.032,0.617-6.915,2.176-11.773,0.294c-0.912-0.353-1.854-1.295-1.5-2.618
		c0.882-3.473,12.154-1.09,15.274-1.737c2.327-0.501,3.739-0.09,4.915-1.56c0.414-0.53,0.5-1.296,0.677-2.179
		c0.234-1.06,1.268-0.471,0.208-2.885c-0.324-0.764-2.208-3.649-2.797-3.826c-1.471-0.441-2.502,0.677-3.27,0.884
		c-0.821,0.205-1.999-0.118-3.234-0.03c-1.854,0.118-3.767,0.53-4.239,0.146c-0.501-0.412-2.562,0.618-3.709,0.03
		c-1.532-0.795,0.089-3.385,0.354-4.238c1.411-4.504,5.711-3.502,10.272-4.768c5.944-1.708,7.977-0.206,11.565-1.089
		c1.149-0.294,2.473-0.029,3.62-0.324c1.177-0.295,4.71-0.706,5.239-0.589c0.822,0.148,2.06,0.06,2.473-0.234
		c0.472-0.265,0.382-1.472,0.325-1.943c-0.267-2.532-0.974-3.415-2.002-4.944C359.284,27.529,359.313,26.586,357.283,27.086z"/>
	<path fill="#FFFFFF" d="M165.679,29.352c-3.532,0.943-0.942,8.507-1.383,11.598c-0.5,3.708-0.324,7.24-1.06,10.801
		c-0.912,4.298-1.883,8.625-2.914,13.128c-1.001,4.266,1.03,5.238,4.121,5.886c0.411,0.089,1.148,0.528,1.707,0.027
		c1.413-1.264,0.795-6.003,1.178-7.914c0.471-2.092,1.442-8.447,2.679-9.714c0.677-0.677,1.383-1.354,2.295-0.471
		c2.208,2.06,3.738,5.032,5.21,7.859c0.677,1.294,2.325,2.029,2.708,3.472c0.588,2.207,0.853,7.564,2.413,8.506
		c0.618,0.354,1.265,0.061,2.148,0.236c0.412,0.088,1.531,0.53,2.354,0.263c1.001-0.351,1.648-3.472,1.885-4.53
		c0.824-3.827-0.647-7.093-0.029-10.598c0.029-0.146,0.087-1.146,0.117-1.295c0.265-1.146-0.295-2.472-0.059-3.619
		c0.56-2.62,0.177-7.006,0.618-10.507c0.265-2.237-0.353-3.916,0.089-6.006c0.353-1.825,0.058-4.149-0.647-5.856
		c-0.677-1.59-4.532-1.325-4.945,0.471c-0.294,1.206,0.531,1.943,0.235,3.238c-0.235,1.089-0.412,3.915-0.56,7.122
		c-0.265,5.593-0.617,12.157-2.884,11.185c-1.059-0.47-2.029-1.795-2.501-2.942c-0.384-0.884-1.384-1.531-1.855-2.296
		c-1.765-2.648-3.943-4.179-4.856-7.857c-1.147-4.622,1.883-8.566-2.826-9.949C168.298,29.413,166.709,29.088,165.679,29.352z"/>
	<path fill="#FFFFFF" d="M213.889,35.799c1.943-0.029,4.092,0.088,5.415,1.443c2.061,2.207-1.765,4.973-5.415,6.503v8.154
		c0.266-0.148,0.529-0.324,0.735-0.384c0.943-0.325,1.707-0.294,2.502-0.646c1.032-0.472,2.12-1.354,2.974-2.032
		c2.443-1.943,4.914-3.149,5.328-3.767c0.499-0.705,0.559-1.559,1.205-2.414c2.208-2.766-0.44-7.977-2.677-10.684
		c-0.296-0.382-0.589-0.942-1.061-1.06c-0.765-0.234-1-0.088-1.561-0.412c-0.382-0.236-1.029-0.942-1.441-1.059
		c-0.736-0.236-2.148-0.177-2.915-0.354c-0.617-0.117-1.765-0.323-3.09-0.471V35.799z M208.414,35.976
		c1.737-0.412,3.444-0.147,5.416-0.177c0.028,0,0.059,0,0.059,0v-7.182c-2.06-0.264-4.474-0.442-5.649-0.264
		c-2.414,0.412-4.622-0.03-7.153,0.588c-3.091,0.736-6.445,1.501-8.859,3.09c-0.677,0.412-0.766,2.268-0.766,2.268
		c0,0.029,0,0.058,0,0.087v0.794c0.295,5.946,7.564-0.029,10.272,1.59c0.146,0.088,0.588,0.53,0.677,0.678
		c0.089,0.116,0.178,0.499,0.205,0.587c0.56,1.678,0.385,5.563-0.176,6.858c-0.294,0.736-0.676-0.059-0.853,0.795
		c-1.029,0.177-2.825,0.471-3.533,1.06c-0.558,0.47-1.117,2.443-1.206,3.237c-0.471,3.827,2.442,4.475,2.974,4.855
		c0.53,0.384,0.736-0.618,2.208-0.234c0.029,1.234-0.06,1.765,0.058,2.562c0.177,1.234-0.117,3.324-0.413,4.827
		c-0.411,1.941-1.322,7.27-0.529,8.917c0.324,0.706,1.119,0.322,2.473,1.234c0.5,0.354,1.472,0.945,2.648,0.56
		c0.912-0.323,1.001-1.885,1.236-2.973c0.383-1.853-0.206-4.769,0.118-7.034c0.354-2.471,0.971-8.447,1.06-9.093
		c0.354-0.442,2.647-0.797,4.297-1.236c0.295-0.09,0.617-0.265,0.912-0.471v-8.154c-1.501,0.647-2.973,1.06-3.973,1.119
		c-1.502,0.118-1.207-0.735-1.119-1.737c0-0.117-0.294-1.942-0.618-3.09c-0.383-1.295-0.059-2.03-0.059-2.03
		C208.149,37.389,207.502,36.182,208.414,35.976z"/>
	<path fill="#FFFFFF" d="M270.988,36.623c1.03-0.264,1.647,0.47,2.267,1.62c0.469,0.882,0.205,7.74,0.234,9.624
		c-1.175,0.147-2.649,0.235-4.181,0.266v9.241c1.385-0.029,3.123-0.059,4.358-0.236c-0.029,1.442-0.295,8.389-0.267,10.272
		c0.06,3.562,1.061,6.827,2.414,7.299c1.03,0.381,2.002,0.061,2.914,0.146c0.148-0.232,0.116-0.384,0.264-0.587
		c0.09-0.09,0.237-0.09,0.295-0.207c0.178-0.235,0.089-0.411,0.208-0.764c0.646-2.004,0.823-5.683,0.292-7.978
		c-0.763-3.297-0.087-6.946-0.116-9.889c1.912-0.707,2.208-1.208,2.472-3.504c0.059-0.441,0.147-1.854,0.147-1.912
		c0-0.117-0.03-0.736-0.03-0.736c0.059-0.117-0.029-0.824-0.059-0.883c-0.294-0.646-1.235-0.263-2.266-0.235
		c0.176-1.501,0.027-4.474-0.324-6.328c-0.382-2.09,0.029-3.149-0.56-4.945c-0.147-0.441,0-0.941-0.471-1.795
		c-0.237-0.5-0.237-1.118-0.382-1.619c-0.265-0.972-1.295-1.707-1.678-2.531c-0.912-2.061-1.738-5.564-5.711-4.208
		c-0.412,0.146-0.971,0.617-1.502,1.207v10.566C269.985,37.477,270.693,36.711,270.988,36.623z M269.309,48.132
		c-1.411,0.028-2.884,0.028-4.209,0c-0.058-0.708,1.002-2.503,2.15-4.858c0.617-1.236,0.854-2.561,1.442-3.708
		c0.205-0.384,0.41-0.737,0.616-1.06V27.941c-0.616,0.676-1.205,1.501-1.472,1.972c-0.44,0.766-1.529,1.443-1.941,2.208
		c-0.913,1.707-1.972,3.296-2.855,4.943c-1.941,3.65-2.941,7.712-5.091,11.274c-0.736,1.235-2.502,1.324-2.885,3.001
		c-0.531,2.207-0.531,4.562-1.354,6.533c-1.177,2.855-2.97,3.916-3.706,7.683c-0.62,3.12,1.06,4.387,2.94,4.946
		c1.648,0.499,2.444-1.562,2.798-2.386c0.883-2.178,2.883-8.358,4.855-9.036c2.415-0.823,3.858-0.441,6.623-1.529
		c0.323-0.12,1.119-0.147,2.088-0.177V48.132z"/>
	<path fill="#FFFFFF" d="M124.444,28.793c-1.943,0.5-3.768,1.148-5.68,1.62c-1.208,0.294-2.268,0.294-3.562,0.647
		c-0.618,0.176-1.972,0.941-2.59,1.119c-1.061,0.264-1.295,0.116-2.472,0.441c-0.383,0.117-1.296,0.53-1.679,0.617
		c-1.265,0.354-2.589,0.471-3.442,1.236c-1.914,1.767-1.914,4.858-0.619,7.477c0.589,1.177,2.296,0.794,1.913,3.266
		c-0.618,4.062-2.443,5.592-2.942,7.741c-0.354,1.473-0.413,2.854-0.5,4.328c-0.177,3.737,0.323,7.211,2.618,10.007
		c1.001,1.236,7.212,3.529,9.242,3.972c2.825,0.591,4.856-0.472,6.859-0.823c0.587-0.558,1.265-1.384,1.441-1.941
		c0.913-2.974-0.854-7.183-1.5-7.418c-1.914,0.029-2.266,1.237-3.708,1.589c-3.386,0.824-7.183-0.943-8.594-2.412
		c-0.561-0.589-0.648-1.885-0.325-2.591c0.265-0.618,1.295-1.826,1.913-2.031c1.12-0.382,1.855-0.059,3.033-0.353
		c1.501-0.381,3.532-0.942,4.886-1.266c1.235-0.325,2.795,0.472,4.386,0.059c1.559-0.384,4.502-0.765,5.032-1.267
		c0.354-0.47,0.205-2.265,0-2.972c-0.412-1.648-0.796-3.738-2.326-4.179c-2.119-0.648-5.386,1.177-8.859,1.765
		c-3.238,0.531-5.739,0.09-4.857-2.914c0.383-1.294,0.412-2.001,1.208-2.824c1.441-1.442,4.149-1.973,6.974-2.562
		c1.001-0.206,2.12-0.647,3.062-0.824c1.294-0.236,2.471-0.236,3.56-0.529c0.59-0.148,1.737-0.53,3.033-0.766
		c1.208-0.235,2.589-0.324,2.972-0.646c0.883-0.767-1.736-5.829-2.059-6.387c-0.061-0.119-0.061-0.089-0.119-0.206
		C130.242,28.353,126.564,28.264,124.444,28.793z"/>
	<path fill="#FFFFFF" d="M86.742,34.828c1.973,0.442,3.738,2.826,4.061,3.679c0.384,1.088,0.09,2.471-0.146,3.443
		c-0.354,1.56-2.326,3.06-3.562,3.884c-0.118,0.088-0.235,0.177-0.353,0.294v15.539c0.823,0.68,1.53,1.239,1.882,1.503
		c3.65,2.53,5.299,7.888,9.655,6.562c0.971-0.322,3.326-2.619,3.503-4.562v-0.528c0-0.059,0-0.146-0.03-0.235
		c-0.088-0.354-0.441-1.178-0.618-1.559c-0.972-1.914-3.502-2.503-5.562-3.916c-0.736-0.53-1.413-1.383-2.149-1.913
		c-0.765-0.56-1.472-1.384-2.031-2.148c-0.176-0.177-0.176-0.59-0.029-0.973c0.206-0.499,1.119-1.089,1.441-1.528
		c1.531-2.091,3.149-4.386,3.856-7.3c1.649-6.947-1.973-13.803-5.474-15.952c-0.884-0.53-1.826-0.794-2.885-1.119
		c-0.412-0.118-0.942-0.235-1.56-0.324V34.828z M85.24,34.886c0.5-0.176,1.001-0.176,1.502-0.058v-7.153
		c-1.061-0.117-2.354-0.146-3.62,0.089c-1.707,0.294-6.152,1.207-6.447,2.06c-0.175,0.441-0.265,1.502-0.529,2.59
		c-0.295,1.266-0.942,1.885-0.619,3.031c0.825,2.884,3.062,2.649,2.267,5.385c-0.5,1.768-1.501,6.977-3.208,7.86
		c-0.825,0.44-2.031,0.206-2.442,0.529c-0.325,0.53-0.707,4.209,0.205,6.005c0.295,0.558,1.325,1.119,1.501,1.618
		c0.295,0.883,0.03,2.855-0.088,3.297c-1.265,5.18-1.913,10.979,2.826,12.065c0.529,0.117,1.472,0.236,1.649-0.027
		c3.001-4.328-0.913-7.477,0.97-11.98c0.913-2.146,1.471-2.382,2.974-1.678c1.352,0.648,3.148,2.033,4.562,3.148V46.129
		c-0.589,0.619-1.031,1.62-1.855,1.796c-4.533,1.001-1.295-6.769-1.119-7.624c0.264-1.236-0.44-2.737-0.059-3.915
		C83.769,36.123,84.975,34.974,85.24,34.886z"/>
	<path fill="#FFFFFF" d="M63.785,80.771c0.235-0.146,0.235-0.266,0.384-0.382c0.086-0.121,0.175-0.295,0.264-0.414
		c0.294-0.323,0.147-0.353,0.294-0.883c1.029-3.501,0.118-7.829,1.265-12.39c0.441-1.855,1.148-5.946,1.914-7.683
		c0.412-0.911,1.413-2.061,1.649-3.18c0.882-3.766-1.973-8.358-2.679-8.563c-0.765-0.971-7.977,0.472-12.626,1.766
		c-2.855,0.824-2.914-0.413-8.182,0.854c-2.532,0.587-4.504,1.088-5.033,3.709c-0.324,1.442,0.529,5.681,1.178,5.856
		c2.384,0.734,3.561-0.735,6.739-1.297c1.972-0.323,3.12-0.086,5.033-0.558c0.942-0.235,2.679-1.117,4.122-0.678
		c0.736,0.237,1.118,1.296,0.765,2.148c-0.324,0.797-0.942,1.736-1.619,2.179c-1.001,0.677-2.738,1.942-3.885,2.236
		c-0.882,0.236-1.795-0.088-2.649,0.146c-0.441,0.119-1.5,0.737-2.061,0.826c-2.413,0.322-6.062,0.264-8.035-0.147
		c-0.766-0.178-1.942-0.735-2.618-0.913c-2.562-0.59-5.946-1.854-6.594-4.238c-1.265-4.679,7.477-13.863,9.712-16.158
		c2.384-2.444,4.74-4.709,7.653-6.624c1.118-0.735,2.266-2.324,3.679-2.707c0.677-0.178,1.118,0.028,1.413,0.117
		c2.501,0.795,3.679,5.503,4.268,5.68c1.971,0.589,3.531-0.735,4.002-1.736c0.589-1.325,0.353-3.797-0.087-5.121
		c-0.619-1.796-2.974-4.357-4.593-5.121c-0.588-0.266-1.236-0.295-1.883-0.471c-0.912-0.294-2.296-1.089-3.825-0.5
		c-3.562,1.325-5.475,3.474-8.064,5.533c-0.973,0.765-2.002,1.441-2.944,2.267c-3.032,2.56-7.388,7.24-9.478,10.713
		c-1.384,2.267-3.208,3.502-4.003,6.534c-0.146,0.559-0.853,1.265-1,1.883c-0.175,0.706,0.06,1.178-0.117,1.882
		c-0.294,1.267-0.794,3.417-0.294,5.094c0.117,0.382,0.559,0.647,0.676,1.029c0.235,0.708,0.295,1.324,0.53,2.002
		c0.176,0.441,0.676,0.765,0.854,1.061c1.029,1.56,1.5,2.443,3.062,3.385c1.971,1.178,5.002,2,7.416,2.53
		c0.59,0.117,1.267-0.177,1.855-0.059c0.176,0.059,0.618,0.56,0.795,0.589c1,0.234,2.384-0.029,3.443-0.059
		c5.945-0.12,9.301-1.119,12.979-3.268c0.354,2.297-0.088,5.682-0.147,8.034c-0.029,1.354,0.147,2.238,0.147,3.65
		c0.207,0.855,2.678,0.971,3.385,1.503C61.842,81.564,63.519,80.947,63.785,80.771z"/>
</g>
</svg>
